<svg width="211" height="32" viewBox="0 0 211 32" fill="none" xmlns="http://www.w3.org/2000/svg">
<path d="M97.6999 4.19844L89.3999 29.2984C89.0999 30.1984 88.3999 30.6984 87.4999 30.6984C86.5999 30.6984 85.8999 30.0984 85.5999 29.2984L78.6999 8.39844L71.7999 29.2984C71.4999 30.1984 70.7999 30.6984 69.8999 30.6984C68.9999 30.6984 68.2999 30.0984 67.9999 29.2984L59.5999 4.19844C59.2999 3.19844 59.7999 2.19844 60.6999 1.79844C61.5999 1.49844 62.5999 1.99844 62.8999 2.89844L69.7999 23.6984L76.4999 3.49844C76.7999 2.49844 77.6999 1.89844 78.5999 1.89844C79.4999 1.89844 80.3999 2.49844 80.6999 3.49844L87.3999 23.6984L94.2999 2.89844C94.5999 1.89844 95.5999 1.39844 96.4999 1.79844C97.5999 2.09844 97.9999 3.19844 97.6999 4.19844ZM115.3 20.0984C115.3 21.0984 114.5 21.9984 113.5 21.9984H100.3C101 25.0984 103.2 27.2984 105.9 27.2984H106.9C108.5 27.2984 110.1 26.5984 111.3 25.2984C112 24.5984 113.1 24.4984 113.8 25.1984C114.5 25.8984 114.5 27.0984 113.9 27.7984C112.1 29.7984 109.6 30.8984 107 30.8984H106C100.8 30.8984 96.6999 25.9984 96.6999 19.9984C96.6999 13.9984 100.9 9.09844 106 9.09844C111.1 9.09844 115.3 13.9984 115.3 20.0984ZM100.3 18.1984H111.5C110.8 15.0984 108.6 12.8984 105.9 12.8984C103.2 12.8984 101 15.0984 100.3 18.1984ZM137 20.0984C137 26.0984 132.8 30.9984 127.7 30.9984C125.5 30.9984 123.5 30.0984 121.9 28.5984V28.7984C121.9 29.7984 121.1 30.6984 120.1 30.6984C119.1 30.6984 118.3 29.8984 118.3 28.7984V3.29844C118.3 2.29844 119.1 1.39844 120.1 1.39844C121.1 1.39844 121.9 2.19844 121.9 3.29844V11.4984C123.5 9.99844 125.5 9.09844 127.7 9.09844C132.8 9.09844 137 13.9984 137 20.0984ZM133.5 20.0984C133.5 16.0984 130.9 12.8984 127.7 12.8984C124.5 12.8984 121.9 16.0984 121.9 20.0984C121.9 24.0984 124.5 27.2984 127.7 27.2984C130.9 27.2984 133.5 23.9984 133.5 20.0984ZM142 1.39844C141 1.39844 140.2 2.19844 140.2 3.29844V28.8984C140.2 29.8984 141 30.7984 142 30.7984C143 30.7984 143.8 29.9984 143.8 28.8984V3.29844C143.8 2.19844 143 1.39844 142 1.39844ZM149.6 9.39844C148.6 9.39844 147.8 10.1984 147.8 11.2984V28.8984C147.8 29.8984 148.6 30.7984 149.6 30.7984C150.6 30.7984 151.4 29.9984 151.4 28.8984V11.2984C151.4 10.1984 150.6 9.39844 149.6 9.39844ZM149.6 1.39844C148.6 1.39844 147.8 2.19844 147.8 3.29844V4.39844C147.8 5.39844 148.6 6.29844 149.6 6.29844C150.6 6.29844 151.4 5.49844 151.4 4.39844V3.29844C151.4 2.19844 150.6 1.39844 149.6 1.39844ZM171.4 9.39844C170.4 9.39844 169.6 10.1984 169.6 11.2984V21.1984C169.6 24.5984 167.2 27.2984 164.3 27.2984C161.4 27.2984 159 24.5984 159 21.1984V11.2984C159 10.2984 158.2 9.39844 157.2 9.39844C156.2 9.39844 155.4 10.1984 155.4 11.2984V21.1984C155.4 26.5984 159.4 31.0984 164.2 31.0984C166.2 31.0984 168 30.3984 169.5 29.0984C169.6 30.0984 170.3 30.7984 171.3 30.7984C172.3 30.7984 173.1 29.9984 173.1 28.8984V11.2984C173.1 10.1984 172.3 9.39844 171.4 9.39844ZM200.2 9.09844C197.3 9.09844 194.7 10.5984 193.1 12.9984C191.5 10.5984 188.9 9.09844 186 9.09844C184 9.09844 182.2 9.79844 180.7 11.0984C180.6 10.0984 179.9 9.39844 178.9 9.39844C177.9 9.39844 177.1 10.1984 177.1 11.2984V28.8984C177.1 29.8984 177.9 30.7984 178.9 30.7984C179.9 30.7984 180.7 29.9984 180.7 28.8984V18.9984C180.7 15.5984 183.1 12.8984 186 12.8984C188.9 12.8984 191.3 15.5984 191.3 18.9984V28.8984C191.3 29.8984 192.1 30.7984 193.1 30.7984C194.1 30.7984 194.9 29.9984 194.9 28.8984V18.9984C194.9 15.5984 197.3 12.8984 200.2 12.8984C203.1 12.8984 205.5 15.5984 205.5 18.9984V28.8984C205.5 29.8984 206.3 30.7984 207.3 30.7984C208.3 30.7984 209.1 29.9984 209.1 28.8984V18.9984C209 13.5984 205 9.09844 200.2 9.09844Z" fill="#1348C2"/>
<path d="M43.9002 1.99844C44.6002 1.39844 45.5002 1.39844 46.3002 1.89844C47.0002 2.39844 47.3002 3.29844 47.0002 4.19844L38.3002 29.2984C38.1002 29.9984 37.5002 30.4984 36.8002 30.6984C36.6002 30.7984 36.4002 30.7984 36.2002 30.7984C35.7002 30.7984 35.2002 30.5984 34.8002 30.2984L29.4002 25.9984C28.7002 25.3984 28.6002 24.2984 29.1002 23.5984C29.6002 22.8984 30.8002 22.6984 31.5002 23.2984L35.6002 26.5984L42.1002 7.89844L14.3002 30.2984C13.7002 30.7984 13.0002 30.8984 12.3002 30.6984C11.6002 30.4984 11.0002 29.9984 10.8002 29.2984L2.10021 4.19844C1.80021 3.29844 2.10021 2.39844 2.80021 1.89844C3.60021 1.39844 4.50021 1.39844 5.20021 1.99844L14.0002 9.09844L23.5002 1.39844C24.1002 0.898438 25.0002 0.898438 25.6002 1.39844L30.2002 5.19844C30.9002 5.79844 31.0002 6.89844 30.5002 7.59844C29.9002 8.29844 28.8002 8.49844 28.1002 7.89844L24.5002 4.99844L15.0002 12.5984C14.4002 13.0984 13.5002 13.0984 12.9002 12.5984L7.00021 7.89844L13.5002 26.5984L43.9002 1.99844Z" fill="#1348C2"/>
</svg>
